<?xml version="1.0" encoding="UTF-8"?>
<svg xmlns="http://www.w3.org/2000/svg" height="375">
   <g transform="translate(30, 330)">
      <line x1="20"
            x2="20"
            y1="0"
            y2="-320"
            stroke="black"
            stroke-width="1"/>
      <line x1="20"
            x2="700"
            y1="0"
            y2="0"
            stroke="black"
            stroke-width="1"/>
      <line x1="20"
            x2="700"
            y1="-150"
            y2="-150"
            stroke="black"
            opacity="0.5"
            stroke-dasharray="8 4"
            stroke-width="1"/>
      <text x="10" y="5" text-anchor="end">0%</text>
      <text x="10" y="-145" text-anchor="end">50%</text>
      <text x="10" y="-295" text-anchor="end">100%</text>
      <rect x="40"
            y="-300"
            height="300"
            fill="blue"
            width="50"
            stroke="black"/>
      <rect x="40"
            y="-83.0303030303030304"
            height="83.0303030303030304"
            fill="red"
            width="50"
            stroke="black"/>
      <text x="40" y="25">plain</text>
      <rect x="110"
            y="-300"
            height="300"
            fill="blue"
            width="50"
            stroke="black"/>
      <rect x="110"
            y="-141.1764705882352941"
            height="141.1764705882352941"
            fill="red"
            width="50"
            stroke="black"/>
      <text x="110" y="25">3m</text>
      <rect x="180"
            y="-300"
            height="300"
            fill="blue"
            width="50"
            stroke="black"/>
      <rect x="180"
            y="-0"
            height="0"
            fill="red"
            width="50"
            stroke="black"/>
      <text x="180" y="25">future</text>
      <rect x="250"
            y="-300"
            height="300"
            fill="blue"
            width="50"
            stroke="black"/>
      <rect x="250"
            y="-16.6666666666666668"
            height="16.6666666666666668"
            fill="red"
            width="50"
            stroke="black"/>
      <text x="250" y="25">past</text>
      <rect x="320"
            y="-300"
            height="300"
            fill="blue"
            width="50"
            stroke="black"/>
      <rect x="320"
            y="-58.3333333333333332"
            height="58.3333333333333332"
            fill="red"
            width="50"
            stroke="black"/>
      <text x="320" y="25">knt</text>
      <rect x="390"
            y="-300"
            height="300"
            fill="blue"
            width="50"
            stroke="black"/>
      <rect x="390"
            y="-73.4693877551020407"
            height="73.4693877551020407"
            fill="red"
            width="50"
            stroke="black"/>
      <text x="390" y="25">negation</text>
      <rect x="460"
            y="-300"
            height="300"
            fill="blue"
            width="50"
            stroke="black"/>
      <rect x="460"
            y="-38.1818181818181819"
            height="38.1818181818181819"
            fill="red"
            width="50"
            stroke="black"/>
      <text x="460" y="25">2nd verb</text>
      <rect x="530"
            y="-300"
            height="300"
            fill="blue"
            width="50"
            stroke="black"/>
      <rect x="530"
            y="-0"
            height="0"
            fill="red"
            width="50"
            stroke="black"/>
      <text x="530" y="25">participle</text>
      <rect x="600"
            y="-300"
            height="300"
            fill="blue"
            width="50"
            stroke="black"/>
      <rect x="600"
            y="-8.5714285714285713"
            height="8.5714285714285713"
            fill="red"
            width="50"
            stroke="black"/>
      <text x="600" y="25">auxillery</text>
   </g>
</svg>
